<svg width="120" height="120" viewBox="0 0 120 120" fill="none" xmlns="http://www.w3.org/2000/svg">
  <defs>
    <linearGradient id="logoGrad" x1="0" y1="0" x2="120" y2="120" gradientUnits="userSpaceOnUse">
      <stop stop-color="#1E3A8A"/>
      <stop offset="1" stop-color="#0F766E"/>
    </linearGradient>
  </defs>
  
  <!-- Background circle -->
  <circle cx="60" cy="60" r="56" fill="white" stroke="url(#logoGrad)" stroke-width="3"/>
  
  <!-- Tooth icon -->
  <g transform="translate(60, 60)">
    <!-- Main tooth shape -->
    <path d="M0 -35c-12 0-22 10-22 22v18c0 20 14 40 22 40s22-20 22-40v-18c0-12-10-22-22-22Z" 
          fill="url(#logoGrad)"/>
    
    <!-- Tooth details -->
    <path d="M-15 5c5 0 10 4 10 12 0 16-8 30-10 38-2-8-10-22-10-38 0-8 5-12 10-12Z" 
          fill="white" fill-opacity="0.3"/>
    
    <!-- Shine effect -->
    <ellipse cx="-5" cy="-15" rx="6" ry="12" fill="white" fill-opacity="0.5"/>
  </g>
  
  <!-- Small accent -->
  <circle cx="85" cy="35" r="4" fill="#0F766E" fill-opacity="0.6"/>
</svg>
