<svg width="600" height="600" viewBox="0 0 600 600" fill="none" xmlns="http://www.w3.org/2000/svg">
  <defs>
    <linearGradient id="drBg3" x1="0" y1="0" x2="600" y2="600" gradientUnits="userSpaceOnUse">
      <stop stop-color="#1E3A8A" stop-opacity="0.14"/>
      <stop offset="1" stop-color="#0F766E" stop-opacity="0.16"/>
    </linearGradient>
    <radialGradient id="skinGrad3" cx="50%" cy="50%">
      <stop offset="0%" stop-color="#FDF2F8"/>
      <stop offset="100%" stop-color="#FCE7F3"/>
    </radialGradient>
  </defs>
  <rect width="600" height="600" rx="48" fill="url(#drBg3)"/>
  
  <!-- Professional portrait -->
  <circle cx="300" cy="240" r="130" fill="url(#skinGrad3)"/>
  <circle cx="300" cy="240" r="120" fill="white" fill-opacity="0.95"/>
  
  <!-- Hair -->
  <path d="M190 190c15-30 50-50 110-50s95 20 110 50c-8 28-38 48-110 48s-102-20-110-48Z" fill="#1E172A" fill-opacity="0.75"/>
  
  <!-- Face features -->
  <ellipse cx="270" cy="230" rx="8" ry="10" fill="#1E3A8A" fill-opacity="0.25"/>
  <ellipse cx="330" cy="230" rx="8" ry="10" fill="#1E3A8A" fill-opacity="0.25"/>
  <path d="M260 260 Q300 275 340 260" stroke="#1E3A8A" stroke-opacity="0.20" stroke-width="3" stroke-linecap="round" fill="none"/>
  
  <!-- Professional attire -->
  <path d="M200 520c30-120 100-180 100-180h0c0 0 70 60 100 180" fill="white" fill-opacity="0.95"/>
  <rect x="240" y="360" width="120" height="160" rx="60" fill="#1E3A8A" fill-opacity="0.12"/>
  
  <!-- Medical coat -->
  <path d="M220 380 L380 380 L375 520 L225 520 Z" fill="#E0F2FE" fill-opacity="0.40"/>
  <rect x="280" y="400" width="40" height="100" rx="20" fill="white"/>
  
  <!-- Orthodontic tools -->
  <circle cx="290" cy="430" r="8" fill="#0F766E" fill-opacity="0.30"/>
  <path d="M290 430 Q310 450 330 430" stroke="#0F766E" stroke-opacity="0.35" stroke-width="3" fill="none"/>
  
  <!-- Warm smile -->
  <path d="M250 280 Q300 295 350 280" stroke="#0F766E" stroke-opacity="0.25" stroke-width="2" stroke-linecap="round" fill="none"/>
</svg>
